<?xml version="1.0" encoding="utf-8"?>
<!-- Generator: Adobe Illustrator 26.4.0, SVG Export Plug-In . SVG Version: 6.00 Build 0)  -->
<svg version="1.1" id="Layer_1" xmlns="http://www.w3.org/2000/svg" xmlns:xlink="http://www.w3.org/1999/xlink" x="0px" y="0px"
	 viewBox="0 0 552 125" style="enable-background:new 0 0 552 125;" xml:space="preserve">
<style type="text/css">
	.st0{fill:#56ABEC;}
	.st1{fill:#32C2F4;}
	.st2{fill:#32E7FA;}
	.st3{fill:#329CEE;}
	.st4{fill-rule:evenodd;clip-rule:evenodd;fill:#FCFCFC;}
	.st5{fill:#FCFCFC;}
</style>
<path class="st0" d="M44.9,8.1v77.7h42c23.2,0,42-18.8,42-42s-18.8-42-42-42H51.2C47.7,1.8,44.9,4.6,44.9,8.1z"/>
<path class="st1" d="M74.6,49.8c3.5,0,6.3,2.8,6.3,6.3l0,0v29.7h-36v-36h29.6C74.5,49.8,74.5,49.8,74.6,49.8
	C74.5,49.8,74.5,49.8,74.6,49.8L74.6,49.8L74.6,49.8z"/>
<path class="st1" d="M74.6,49.8c3.5,0,6.3,2.8,6.3,6.3l0,0v29.7h-36v-36h29.6C74.5,49.8,74.5,49.8,74.6,49.8
	C74.5,49.8,74.5,49.8,74.6,49.8L74.6,49.8L74.6,49.8z"/>
<path class="st2" d="M7.8,49.8C7.8,49.8,7.8,49.8,7.8,49.8h37.1v36H19.1c-1.7,0-3.5,0-4.4-1.9L2.2,59.4c-0.5-1-0.9-2.1-0.9-3.2
	c0-3.5,2.8-6.3,6.3-6.4c0,0,0,0,0,0C7.7,49.8,7.7,49.8,7.8,49.8C7.7,49.8,7.7,49.8,7.8,49.8C7.8,49.8,7.8,49.8,7.8,49.8z"/>
<path class="st2" d="M80.9,115.3C80.9,115.3,80.9,115.3,80.9,115.3V85.8h-36V104c0,1.7,0,3.5,2,4.4l24.5,12.4c1,0.5,2.1,0.8,3.2,0.8
	c3.5,0,6.3-2.8,6.4-6.3c0,0,0,0,0,0c0,0,0,0,0,0S80.9,115.4,80.9,115.3C80.9,115.4,80.9,115.3,80.9,115.3z"/>
<path class="st3" d="M80.9,85.8h6c7.6,0,14.6-2,20.8-5.5L79.3,51.9c1,1.1,1.6,2.6,1.6,4.2V85.8z"/>
<path class="st4" d="M161,52.5h9.6c5.9,0,8.7-2.5,8.7-6.9c0-4.3-2.8-6.9-8.7-6.9H161V52.5z M149.9,28.3h21.5
	c12,0,19.4,6.6,19.3,17.4c0,10.8-7.3,17.4-19.4,17.4h-10.4v18.2h-11.1V28.3z"/>
<polygon class="st5" points="310.9,28.3 299.9,28.3 299.9,81 335.3,81 335.3,70.4 310.9,70.4 "/>
<path class="st4" d="M230.4,72.3c5.8,0,10.5-4.7,10.5-10.5s-4.7-10.5-10.5-10.5s-10.5,4.7-10.5,10.5S224.6,72.3,230.4,72.3z
	 M251.4,61.5c0,11.2-8.6,20.2-19.2,20.2c-3.8,0-7.2-1.1-10.2-3.1v2.1l0,0v14.4h-10.5V42.3h10.5v2.1c3-2,6.5-3.1,10.2-3.1
	C242.7,41.3,251.4,50.3,251.4,61.5z"/>
<path class="st4" d="M266.3,56.8c1.4-4.5,4.9-6.8,9.9-6.8c4.8,0,8,2.2,9,6.8H266.3z M295.7,60.5c0-11.9-8.1-19.2-19.4-19.2
	c-12.4,0-21,8.6-21,20.6c0,11.7,8.2,20,21,20c7.5,0,13.7-2.8,18.1-8.3l-8.2-4.7c-2.9,2.9-6.1,4.1-9.8,4.1c-6,0-9.8-2.9-10.7-8.6
	h29.6C295.6,62.9,295.7,61.7,295.7,60.5z"/>
<path class="st4" d="M369.1,68.1c-2.3,2.7-5.5,4-8.7,4c-5.8,0-10.1-4.2-10.1-10.5c0-6.4,4.3-10.5,10.1-10.5c3.2,0,6.4,1.3,8.7,3.9
	V68.1z M369.1,44.7c-2.9-2.2-6.5-3.5-10.4-3.5c-10.5,0-19.1,8.4-19.1,20.3c0,11.7,8.6,20.3,19.1,20.3c3.9,0,7.5-1.2,10.4-3.4v2.6
	h10.5V42.2h-10.5V44.7z"/>
<path class="st5" d="M411.5,68c-2.4,2.8-5.4,4.1-8.4,4.1c-4.5,0-7-2.8-7-8.6V42.1h-10.5v23.6c0,10.2,5.8,16.1,14.6,16.1
	c4.2,0,8.1-1.3,11.3-3.8v2.8H422V42.1h-10.5L411.5,68L411.5,68z"/>
<path class="st5" d="M438.4,45.1c3.1-2.5,7.1-3.8,11.3-3.8c8.9,0,15,5.8,15,16.4v23.3h-10.5v-21c0-6-2.8-8.9-7.3-8.9
	c-2.9,0-6,1.3-8.4,4.1v25.8h-10.5V42.2h10.5V45.1z"/>
<path class="st5" d="M498.7,67.6c-2.5,2.9-5.6,4.5-9,4.5c-5.6,0-10-4.1-10-10.5c0-6.3,4.2-10.5,9.9-10.5c3.4,0,6.5,1.6,9.2,5.1
	l8.1-6.5c-3.9-5.4-10.1-8.4-17.2-8.4c-11.6,0-20.7,8.4-20.7,20.4c0,11.9,8.8,20.1,20.5,20.1c7.5,0,14.1-3.4,17.9-9.3L498.7,67.6z"/>
<path class="st5" d="M522.1,45.3c3.2-2.5,7.1-3.8,11.3-3.8c8.9,0,15,5.8,15,16.3v23.3h-10.5v-21c0-6-2.8-8.9-7.3-8.9
	c-2.9,0-6,1.3-8.4,4.1v25.8h-10.5V28.3h10.5V45.3z"/>
<path class="st5" d="M200.1,28.3c-3,0-5.3,2.4-5.3,5.2c0,2.9,2.3,5.2,5.3,5.2c2.9,0,5.2-2.3,5.2-5.2C205.4,30.6,203,28.3,200.1,28.3
	z"/>
<polygon class="st5" points="205.4,42.4 194.9,42.4 194.9,81.3 205.4,81.3 205.4,80.8 205.4,80.8 "/>
</svg>
