<svg xmlns="http://www.w3.org/2000/svg" xmlns:xlink="http://www.w3.org/1999/xlink" width="552" height="124" viewBox="0 0 552 124"><defs><clipPath id="b"><rect width="552" height="124"/></clipPath></defs><g id="a" clip-path="url(#b)"><g transform="translate(1.5)"><path d="M160.96,52.53h9.64c5.85,0,8.66-2.55,8.66-6.94s-2.77-6.86-8.66-6.86h-9.64Zm-11.1-24.26h21.49c12.04,0,19.35,6.64,19.31,17.36,0,10.76-7.31,17.4-19.35,17.4H160.92V81.27H149.86V28.26Z" fill="#fff"/><path d="M310.94,28.26H299.88V81.03h35.4V70.45H310.94Z" fill="#fff"/><path d="M230.36,72.26a10.5,10.5,0,1,0-10.5-10.5A10.5,10.5,0,0,0,230.36,72.26Zm21-10.75c0,11.18-8.62,20.25-19.25,20.25a18.485,18.485,0,0,1-10.21-3.08v2.08h0V95.14H211.36V42.26H221.9v2.08a18.485,18.485,0,0,1,10.21-3.08c10.63,0,19.25,9.07,19.25,20.25Z" fill="#fff"/><path d="M266.28,56.79c1.43-4.46,4.91-6.79,9.86-6.79s7.99,2.18,8.96,6.79H266.27Zm29.4,3.67c0-11.89-8.06-19.2-19.35-19.2-12.38,0-20.96,8.59-20.96,20.59s8.21,19.95,21.04,19.95c7.54,0,13.73-2.77,18.08-8.29l-8.18-4.72a13,13,0,0,1-9.75,4.05c-5.96,0-9.79-2.92-10.69-8.59H295.5c.11-1.31.19-2.51.19-3.79Z" fill="#fff"/><path d="M369.08,68.08a11.377,11.377,0,0,1-8.74,3.97c-5.81,0-10.09-4.16-10.09-10.54s4.31-10.54,10.09-10.54a11.544,11.544,0,0,1,8.74,3.9v13.2Zm0-23.36a16.656,16.656,0,0,0-10.39-3.45c-10.54,0-19.13,8.44-19.13,20.29s8.59,20.29,19.13,20.29a16.656,16.656,0,0,0,10.39-3.45v2.55h10.54V42.16H369.08v2.55Z" fill="#fff"/><path d="M411.49,67.98a11.068,11.068,0,0,1-8.36,4.09c-4.46,0-7.01-2.85-7.01-8.59V42.14H385.58V65.73c0,10.24,5.81,16.05,14.63,16.05a17.992,17.992,0,0,0,11.29-3.75v2.85h10.54V42.14H411.5V67.98Z" fill="#fff"/><path d="M438.36,45.09a17.8,17.8,0,0,1,11.29-3.82c8.89,0,15,5.85,15,16.35V80.91H454.11V59.87c0-5.96-2.78-8.89-7.31-8.89a11.332,11.332,0,0,0-8.44,4.09V80.91H427.82V42.16h10.54v2.92Z" fill="#fff"/><path d="M498.71,67.59a11.735,11.735,0,0,1-9.04,4.46c-5.59,0-10.01-4.05-10.01-10.54s4.24-10.54,9.86-10.54c3.38,0,6.49,1.58,9.19,5.14l8.14-6.49c-3.9-5.36-10.09-8.36-17.25-8.36-11.59,0-20.74,8.36-20.74,20.44s8.81,20.1,20.51,20.1c7.54,0,14.1-3.38,17.85-9.26Z" fill="#fff"/><path d="M522.1,45.31a17.808,17.808,0,0,1,11.29-3.83c8.89,0,15,5.85,15,16.35V81.12H537.85V60.08c0-5.96-2.78-8.89-7.31-8.89a11.332,11.332,0,0,0-8.44,4.09V81.12H511.56V28.26H522.1V45.31Z" fill="#fff"/><path d="M200.15,28.26a5.21,5.21,0,0,0-5.29,5.17,5.3,5.3,0,0,0,5.29,5.25,5.21,5.21,0,1,0,0-10.42Z" fill="#fff"/><path d="M205.4,42.39H194.86V81.26H205.4v-.5h0Z" fill="#fff"/><path d="M74.7,50A6.378,6.378,0,0,1,81,56.3h0V86H45V50Z" fill="#fff"/><path d="M74.7,50A6.378,6.378,0,0,1,81,56.3h0V86H45V50Z" fill="#fff"/><path d="M45,46V8.3A6.378,6.378,0,0,1,51.3,2H87a42,42,0,0,1,0,84H85V55a9,9,0,0,0-9-9Z" fill="#fff"/><path d="M41,50H7.78A6.375,6.375,0,0,0,1.5,56.37a7.038,7.038,0,0,0,.85,3.23L14.79,84.05C15.75,86,17.51,86,19.21,86H41Z" fill="#fff"/><path d="M45,90v14.29c0,1.71,0,3.46,1.95,4.43L71.4,121.16a7.131,7.131,0,0,0,3.23.85A6.368,6.368,0,0,0,81,115.73V90Z" fill="#fff"/></g></g></svg>