<?xml version="1.0" encoding="utf-8"?>
<!-- Generator: Adobe Illustrator 26.2.1, SVG Export Plug-In . SVG Version: 6.00 Build 0)  -->
<svg version="1.1" id="Layer_1" xmlns="http://www.w3.org/2000/svg" xmlns:xlink="http://www.w3.org/1999/xlink" x="0px" y="0px"
	 viewBox="0 0 32 32" style="enable-background:new 0 0 32 32;" xml:space="preserve">
<style type="text/css">
	.st0{fill:#56ABEC;}
	.st1{fill:#32C2F4;}
	.st2{fill:#32E7FA;}
	.st3{fill:#329CEE;}
</style>
<g>
	<defs>
		<rect id="SVGID_1_" x="-4.45" y="-3" width="41.45" height="41.45"/>
	</defs>
	<clipPath id="SVGID_00000167381753458339786670000015366920568998238856_">
		<use xlink:href="#SVGID_1_"  style="overflow:visible;"/>
	</clipPath>
</g>
<path class="st0" d="M12.32,7.65v12.78h6.91c3.82,0,6.91-3.09,6.91-6.91s-3.09-6.91-6.91-6.91h-5.87
	C12.79,6.62,12.33,7.08,12.32,7.65z"/>
<path class="st1" d="M17.21,14.51c0.57,0.01,1.03,0.47,1.04,1.04c0,0,0,0,0,0l0,4.89h-5.92v-5.92h4.87c0,0,0,0,0.01,0
	C17.2,14.51,17.2,14.51,17.21,14.51L17.21,14.51C17.21,14.51,17.21,14.51,17.21,14.51z"/>
<path class="st1" d="M17.21,14.51c0.57,0.01,1.03,0.47,1.04,1.04c0,0,0,0,0,0l0,4.89h-5.92v-5.92h4.87c0,0,0,0,0.01,0
	C17.2,14.51,17.2,14.51,17.21,14.51L17.21,14.51C17.21,14.51,17.21,14.51,17.21,14.51z"/>
<path class="st2" d="M6.23,14.51C6.23,14.51,6.23,14.51,6.23,14.51l6.1,0v5.92H8.08c-0.28,0-0.57,0-0.73-0.32l-2.05-4.02
	c-0.08-0.17-0.14-0.34-0.14-0.53c0-0.57,0.46-1.04,1.03-1.05c0,0,0,0,0,0c0,0,0,0,0.01,0C6.21,14.51,6.22,14.51,6.23,14.51
	C6.22,14.51,6.22,14.51,6.23,14.51z"/>
<path class="st2" d="M18.25,25.29C18.25,25.29,18.25,25.29,18.25,25.29l0-4.86h-5.92v3.01c0,0.28,0,0.57,0.32,0.73l4.02,2.05
	c0.17,0.08,0.34,0.14,0.53,0.14c0.57,0,1.04-0.46,1.05-1.03c0,0,0,0,0,0c0,0,0,0,0-0.01C18.25,25.31,18.25,25.3,18.25,25.29
	C18.25,25.3,18.25,25.3,18.25,25.29z"/>
<path class="st3" d="M18.25,20.43h0.99c1.24,0,2.41-0.33,3.42-0.9l-4.67-4.67c0.16,0.18,0.26,0.42,0.26,0.68L18.25,20.43z"/>
</svg>
