<?xml version="1.0" encoding="utf-8"?>
<!-- Generator: Adobe Illustrator 26.2.1, SVG Export Plug-In . SVG Version: 6.00 Build 0)  -->
<svg version="1.1" id="Layer_1" xmlns="http://www.w3.org/2000/svg" xmlns:xlink="http://www.w3.org/1999/xlink" x="0px" y="0px"
	 viewBox="0 0 128 128" style="enable-background:new 0 0 128 128;" xml:space="preserve">
<style type="text/css">
	.st0{fill:#56ABEC;}
	.st1{fill:#32C2F4;}
	.st2{fill:#32E7FA;}
	.st3{fill:#329CEE;}
</style>
<path class="st0" d="M44,12.3V90h42c23.2,0,42-18.8,42-42S109.2,6,86,6H50.3C46.84,6.04,44.04,8.84,44,12.3z"/>
<path class="st1" d="M73.7,54c3.46,0.04,6.26,2.84,6.3,6.3c0,0,0,0,0,0L80,90H44V54h29.59c0.01,0,0.02,0,0.03,0
	c0.01,0,0.02,0,0.03,0L73.7,54C73.7,54,73.7,54,73.7,54z"/>
<path class="st1" d="M73.7,54c3.46,0.04,6.26,2.84,6.3,6.3c0,0,0,0,0,0L80,90H44V54h29.59c0.01,0,0.02,0,0.03,0
	c0.01,0,0.02,0,0.03,0L73.7,54C73.7,54,73.7,54,73.7,54z"/>
<path class="st2" d="M6.93,54c0.02,0,0.03,0,0.05,0L44,54v36l-25.79,0c-1.71,0-3.46,0-4.43-1.95L1.35,63.6
	c-0.51-1.01-0.85-2.08-0.85-3.23c0-3.49,2.8-6.32,6.28-6.37c0.01,0,0.02,0,0.02,0c0.01,0,0.02,0,0.03,0c0.01,0,0.03,0,0.04,0
	C6.89,54,6.91,54,6.93,54z"/>
<path class="st2" d="M80,119.57c0-0.02,0-0.03,0-0.05L80,90H44l0,18.29c0,1.71,0,3.46,1.95,4.43l24.45,12.44
	c1.01,0.51,2.08,0.85,3.23,0.85c3.49,0,6.32-2.8,6.37-6.28c0-0.01,0-0.02,0-0.02c0-0.01,0-0.02,0-0.03c0-0.01,0-0.03,0-0.04
	C80,119.61,80,119.59,80,119.57z"/>
<path class="st3" d="M80,90h6c7.55,0,14.64-1.99,20.77-5.48L78.4,56.14c0.98,1.11,1.59,2.56,1.6,4.16L80,90z"/>
</svg>
