<?xml version="1.0" encoding="utf-8"?>
<!-- Generator: Adobe Illustrator 26.2.1, SVG Export Plug-In . SVG Version: 6.00 Build 0)  -->
<svg version="1.1" id="Layer_1" xmlns="http://www.w3.org/2000/svg" xmlns:xlink="http://www.w3.org/1999/xlink" x="0px" y="0px"
	 viewBox="0 0 128 128" style="enable-background:new 0 0 128 128;" xml:space="preserve">
<style type="text/css">
	.st0{fill:#FFFFFF;}
</style>
<path class="st0" d="M73.7,52c3.46,0.04,6.26,2.84,6.3,6.3c0,0,0,0,0,0L80,88H44V52h29.59c0.01,0,0.02,0,0.03,0
	c0.01,0,0.02,0,0.03,0L73.7,52C73.7,52,73.7,52,73.7,52z"/>
<path class="st0" d="M73.7,52c3.46,0.04,6.26,2.84,6.3,6.3c0,0,0,0,0,0L80,88H44V52h29.59c0.01,0,0.02,0,0.03,0
	c0.01,0,0.02,0,0.03,0L73.7,52C73.7,52,73.7,52,73.7,52z"/>
<path class="st0" d="M44,48V10.3c0.04-3.46,2.84-6.26,6.3-6.3H86c23.2,0,42,18.8,42,42s-18.8,42-42,42h-2l0-31c0-4.97-4.03-9-9-9
	c-4.09,0-8.18,0-12.28,0C56.48,48,50.24,48,44,48z"/>
<path class="st0" d="M40,52L6.98,52c-0.02,0-0.03,0-0.05,0c-0.02,0-0.04,0-0.06,0l-0.04,0L6.8,52c-0.01,0-0.02,0-0.02,0
	C3.3,52.05,0.5,54.89,0.5,58.37c0,1.14,0.33,2.22,0.85,3.23l12.44,24.45C14.75,88,16.51,88,18.21,88H40V52z"/>
<path class="st0" d="M44,92v14.29c0,1.71,0,3.46,1.95,4.43l24.45,12.44c1.01,0.51,2.08,0.85,3.23,0.85c3.49,0,6.32-2.8,6.37-6.28
	c0-0.01,0-0.02,0-0.02l0-0.03l0-0.04c0-0.01,0-0.02,0-0.03c0-0.01,0-0.02,0-0.03c0-0.02,0-0.03,0-0.05L80,92H44z"/>
</svg>
