<?xml version="1.0" encoding="utf-8"?>
<!-- Generator: Adobe Illustrator 26.2.1, SVG Export Plug-In . SVG Version: 6.00 Build 0)  -->
<svg version="1.1" id="Layer_1" xmlns="http://www.w3.org/2000/svg" xmlns:xlink="http://www.w3.org/1999/xlink" x="0px" y="0px"
	 viewBox="0 0 128 128" style="enable-background:new 0 0 128 128;" xml:space="preserve">
<style type="text/css">
	.st0{fill:#A4A4A4;}
	.st1{fill:#32C2F4;}
	.st2{fill:#B4B4B4;}
	.st3{fill:#D2D2D2;}
	.st4{fill:#969696;}
</style>
<path class="st0" d="M43.75,10.3V88h42c23.2,0,42-18.8,42-42s-18.8-42-42-42h-35.7C46.59,4.04,43.79,6.84,43.75,10.3z"/>
<path class="st1" d="M73.45,52c3.46,0.04,6.26,2.84,6.3,6.3c0,0,0,0,0,0l0,29.7h-36V52h29.59c0.01,0,0.02,0,0.03,0
	c0.01,0,0.02,0,0.03,0L73.45,52C73.45,52,73.45,52,73.45,52z"/>
<path class="st2" d="M73.45,52c3.46,0.04,6.26,2.84,6.3,6.3c0,0,0,0,0,0l0,29.7h-36V52h29.59c0.01,0,0.02,0,0.03,0
	c0.01,0,0.02,0,0.03,0L73.45,52C73.45,52,73.45,52,73.45,52z"/>
<path class="st3" d="M6.68,52c0.02,0,0.03,0,0.05,0l37.02,0v36l-25.79,0c-1.71,0-3.46,0-4.43-1.95L1.1,61.6
	c-0.51-1.01-0.85-2.08-0.85-3.23c0-3.49,2.8-6.32,6.28-6.37c0.01,0,0.02,0,0.02,0c0.01,0,0.02,0,0.03,0c0.01,0,0.03,0,0.04,0
	C6.64,52,6.66,52,6.68,52z"/>
<path class="st3" d="M79.75,117.57c0-0.02,0-0.03,0-0.05l0-29.52h-36l0,18.29c0,1.71,0,3.46,1.95,4.43l24.45,12.44
	c1.01,0.51,2.08,0.85,3.23,0.85c3.49,0,6.32-2.8,6.37-6.28c0-0.01,0-0.02,0-0.02c0-0.01,0-0.02,0-0.03c0-0.01,0-0.03,0-0.04
	C79.75,117.61,79.75,117.59,79.75,117.57z"/>
<path class="st4" d="M79.75,88h6c7.55,0,14.64-1.99,20.77-5.48L78.14,54.15c0.98,1.11,1.59,2.56,1.6,4.16L79.75,88z"/>
</svg>
